<svg width="128" height="128" viewBox="0 0 128 128" fill="none" xmlns="http://www.w3.org/2000/svg">
  <defs>
    <linearGradient id="phoneBg" x1="18" y1="14" x2="110" y2="118" gradientUnits="userSpaceOnUse">
      <stop stop-color="#7CF5A6"/>
      <stop offset="1" stop-color="#15B95A"/>
    </linearGradient>
  </defs>
  <rect x="12" y="12" width="104" height="104" rx="30" fill="url(#phoneBg)"/>
  <path d="M43.5298 36.8341C45.5037 34.8601 48.7312 34.8555 50.7106 36.8238L57.3677 43.444C59.2071 45.2733 59.3444 48.1808 57.6838 50.1758L54.1047 54.476C53.1886 55.5767 53.0278 57.0922 53.6989 58.3562C57.0807 64.7249 62.2751 69.9193 68.6438 73.3011C69.9078 73.9722 71.4233 73.8114 72.524 72.8953L76.8242 69.3162C78.8192 67.6556 81.7267 67.7929 83.556 69.6323L90.1762 76.2894C92.1445 78.2688 92.1399 81.4963 90.1659 83.4702L86.3875 87.2487C83.1183 90.5178 78.2515 91.6525 73.9257 90.1607C60.312 85.467 42.533 67.688 37.8393 54.0743C36.3475 49.7485 37.4822 44.8817 40.7513 41.6125L43.5298 36.8341Z" fill="white"/>
</svg>
