<svg width="1600" height="900" viewBox="0 0 1600 900" fill="none" xmlns="http://www.w3.org/2000/svg">
  <rect width="1600" height="900" fill="#101016"/>
  <rect y="560" width="1600" height="340" fill="#181822"/>
  <rect x="160" y="130" width="360" height="280" rx="20" fill="#1B2130"/>
  <rect x="195" y="165" width="290" height="210" rx="14" fill="#33415C"/>
  <rect x="1010" y="120" width="340" height="500" rx="20" fill="#26202B"/>
  <rect x="600" y="360" width="520" height="250" rx="28" fill="#3A3342"/>
  <rect x="640" y="395" width="440" height="180" rx="20" fill="#61586A"/>
  <rect x="560" y="380" width="70" height="170" rx="14" fill="#241F2B"/>
  <rect x="1090" y="380" width="70" height="170" rx="14" fill="#241F2B"/>
  <rect x="690" y="305" width="120" height="70" rx="16" fill="#726879"/>
  <rect x="880" y="305" width="120" height="70" rx="16" fill="#726879"/>
  <circle cx="960" cy="470" r="24" fill="#C4B6A2" fill-opacity="0.85"/>
  <path d="M915 502C880 540 846 575 800 620" stroke="#A89B89" stroke-opacity="0.38" stroke-width="12" stroke-linecap="round"/>
  <path d="M0 0H1600V900H0V0Z" fill="url(#paint0_radial)" fill-opacity="0.62"/>
  <defs>
    <radialGradient id="paint0_radial" cx="0" cy="0" r="1" gradientUnits="userSpaceOnUse" gradientTransform="translate(820 430) rotate(90) scale(500 860)">
      <stop stop-color="#A59ABB" stop-opacity="0.16"/>
      <stop offset="1" stop-color="#000000" stop-opacity="0.8"/>
    </radialGradient>
  </defs>
</svg>
