<svg width="1600" height="900" viewBox="0 0 1600 900" fill="none" xmlns="http://www.w3.org/2000/svg">
  <rect width="1600" height="900" fill="#121013"/>
  <rect y="560" width="1600" height="340" fill="#20181B"/>
  <rect x="110" y="90" width="450" height="280" rx="16" fill="#1E252D"/>
  <rect x="150" y="125" width="370" height="210" rx="10" fill="#465360"/>
  <rect x="1040" y="110" width="360" height="470" rx="18" fill="#2A2224"/>
  <rect x="1085" y="150" width="270" height="390" rx="12" fill="#403235"/>
  <rect x="420" y="470" width="760" height="180" rx="42" fill="#3A2E33"/>
  <rect x="500" y="400" width="600" height="120" rx="32" fill="#4A3A40"/>
  <rect x="650" y="610" width="300" height="85" rx="18" fill="#2A2224"/>
  <rect x="708" y="650" width="70" height="95" rx="12" fill="#161315"/>
  <rect x="822" y="650" width="70" height="95" rx="12" fill="#161315"/>
  <circle cx="810" cy="447" r="26" fill="#7E2020"/>
  <path d="M760 450C700 510 660 558 645 660" stroke="#8E2A2A" stroke-opacity="0.5" stroke-width="20" stroke-linecap="round"/>
  <path d="M0 0H1600V900H0V0Z" fill="url(#paint0_radial)" fill-opacity="0.64"/>
  <defs>
    <radialGradient id="paint0_radial" cx="0" cy="0" r="1" gradientUnits="userSpaceOnUse" gradientTransform="translate(800 420) rotate(90) scale(500 860)">
      <stop stop-color="#A35656" stop-opacity="0.18"/>
      <stop offset="1" stop-color="#000000" stop-opacity="0.78"/>
    </radialGradient>
  </defs>
</svg>
