<svg width="1200" height="900" viewBox="0 0 1200 900" fill="none" xmlns="http://www.w3.org/2000/svg">
  <rect width="1200" height="900" fill="#13121A"/>
  <rect x="68" y="54" width="1064" height="792" rx="24" fill="#B9AA92"/>
  <rect x="96" y="82" width="1008" height="736" rx="18" fill="#CCBCA5"/>
  <rect x="134" y="118" width="322" height="226" rx="12" fill="#F2F0F5" stroke="#635E72" stroke-width="10"/>
  <rect x="502" y="120" width="236" height="170" rx="12" fill="#F9F7FB" stroke="#635E72" stroke-width="8"/>
  <rect x="786" y="116" width="262" height="212" rx="12" fill="#EFEAF1" stroke="#635E72" stroke-width="10"/>
  <rect x="164" y="414" width="250" height="170" rx="12" fill="#FBFAF8" stroke="#6F5A49" stroke-width="8"/>
  <rect x="452" y="358" width="372" height="288" rx="12" fill="#F9F6F1" stroke="#6F5A49" stroke-width="10"/>
  <rect x="852" y="426" width="182" height="128" rx="12" fill="#F4EEE2" stroke="#6F5A49" stroke-width="8"/>
  <path d="M240 250C278 222 320 222 352 252" stroke="#B8A77E" stroke-width="18" stroke-linecap="round"/>
  <path d="M658 470C710 438 750 432 786 446" stroke="#41536E" stroke-width="12" stroke-linecap="round"/>
  <path d="M908 216L864 426" stroke="#6E1E1E" stroke-width="8"/>
  <path d="M410 204L502 196" stroke="#6E1E1E" stroke-width="8"/>
  <path d="M412 474L452 474" stroke="#6E1E1E" stroke-width="8"/>
  <text x="142" y="744" fill="#352A1F" font-size="34" font-family="monospace">BEDROOM EVIDENCE BOARD</text>
</svg>
